<svg width="20" height="20" viewBox="0 0 20 20" fill="none" xmlns="http://www.w3.org/2000/svg">
<path d="M7.9165 18.3334C7.09706 18.3334 6.40609 18.0522 5.84359 17.4897C5.28109 16.9272 4.99984 16.2362 4.99984 15.4167C4.99984 15.2917 5.0172 15.1945 5.05192 15.1251C5.08664 15.0556 5.08317 15.0001 5.0415 14.9584C4.99984 14.9167 4.94428 14.9133 4.87484 14.948C4.80539 14.9827 4.70817 15.0001 4.58317 15.0001C3.76373 15.0001 3.07275 14.7188 2.51025 14.1563C1.94775 13.5938 1.6665 12.9029 1.6665 12.0834C1.6665 11.264 1.94775 10.573 2.51025 10.0105C3.07275 9.448 3.76373 9.16675 4.58317 9.16675C4.90261 9.16675 5.19428 9.20841 5.45817 9.29175C5.72206 9.37508 5.97206 9.50008 6.20817 9.66675L9.6665 6.20841C9.49984 5.9723 9.37484 5.7223 9.2915 5.45841C9.20817 5.19453 9.1665 4.90286 9.1665 4.58341C9.1665 3.76397 9.44775 3.073 10.0103 2.5105C10.5728 1.948 11.2637 1.66675 12.0832 1.66675C12.9026 1.66675 13.5936 1.948 14.1561 2.5105C14.7186 3.073 14.9998 3.76397 14.9998 4.58341C14.9998 4.70841 14.9825 4.80564 14.9478 4.87508C14.913 4.94453 14.9165 5.00008 14.9582 5.04175C14.9998 5.08341 15.0554 5.08689 15.1248 5.05216C15.1943 5.01744 15.2915 5.00008 15.4165 5.00008C16.2359 5.00008 16.9269 5.28133 17.4894 5.84383C18.0519 6.40633 18.3332 7.0973 18.3332 7.91675C18.3332 8.73619 18.0519 9.42716 17.4894 9.98966C16.9269 10.5522 16.2359 10.8334 15.4165 10.8334C15.0971 10.8334 14.8054 10.7917 14.5415 10.7084C14.2776 10.6251 14.0276 10.5001 13.7915 10.3334L10.3332 13.7917C10.4998 14.0279 10.6248 14.2779 10.7082 14.5417C10.7915 14.8056 10.8332 15.0973 10.8332 15.4167C10.8332 16.2362 10.5519 16.9272 9.98942 17.4897C9.42692 18.0522 8.73595 18.3334 7.9165 18.3334ZM8.81234 16.3126C9.04845 16.0765 9.1665 15.7779 9.1665 15.4167C9.1665 15.2917 9.14914 15.1702 9.11442 15.0522C9.0797 14.9341 9.02761 14.8195 8.95817 14.7084C8.72206 14.3751 8.62484 14.0174 8.6665 13.6355C8.70817 13.2536 8.87484 12.9167 9.1665 12.6251L12.6248 9.16675C12.9165 8.87508 13.2533 8.70841 13.6353 8.66675C14.0172 8.62508 14.3748 8.7223 14.7082 8.95841C14.8193 9.02786 14.9339 9.07994 15.0519 9.11466C15.17 9.14939 15.2915 9.16675 15.4165 9.16675C15.7776 9.16675 16.0762 9.04869 16.3123 8.81258C16.5484 8.57647 16.6665 8.27786 16.6665 7.91675C16.6665 7.55564 16.5484 7.25703 16.3123 7.02091C16.0762 6.7848 15.7776 6.66675 15.4165 6.66675C14.9304 6.66675 14.5901 6.64244 14.3957 6.59383C14.2012 6.54522 13.9998 6.41675 13.7915 6.20841C13.5832 6.00008 13.4547 5.79869 13.4061 5.60425C13.3575 5.4098 13.3332 5.06953 13.3332 4.58341C13.3332 4.2223 13.2151 3.92369 12.979 3.68758C12.7429 3.45147 12.4443 3.33341 12.0832 3.33341C11.7221 3.33341 11.4234 3.45147 11.1873 3.68758C10.9512 3.92369 10.8332 4.2223 10.8332 4.58341C10.8332 4.73619 10.8471 4.86466 10.8748 4.96883C10.9026 5.073 10.9582 5.18064 11.0415 5.29175C11.2776 5.62508 11.3748 5.98272 11.3332 6.36466C11.2915 6.74661 11.1248 7.08341 10.8332 7.37508L7.37484 10.8334C7.08317 11.1251 6.74636 11.2917 6.36442 11.3334C5.98248 11.3751 5.62484 11.2779 5.2915 11.0417C5.18039 10.9723 5.06581 10.9202 4.94775 10.8855C4.8297 10.8508 4.70817 10.8334 4.58317 10.8334C4.22206 10.8334 3.92345 10.9515 3.68734 11.1876C3.45123 11.4237 3.33317 11.7223 3.33317 12.0834C3.33317 12.4445 3.45123 12.7431 3.68734 12.9792C3.92345 13.2154 4.22206 13.3334 4.58317 13.3334C5.06928 13.3334 5.40956 13.3577 5.604 13.4063C5.79845 13.4549 5.99984 13.5834 6.20817 13.7917C6.4165 14.0001 6.54498 14.2015 6.59359 14.3959C6.6422 14.5904 6.6665 14.9306 6.6665 15.4167C6.6665 15.7779 6.78456 16.0765 7.02067 16.3126C7.25678 16.5487 7.55539 16.6667 7.9165 16.6667C8.27761 16.6667 8.57623 16.5487 8.81234 16.3126Z" fill="white"/>
</svg>
