<svg width="64" height="64" viewBox="568 32 64 64" fill="none" xmlns="http://www.w3.org/2000/svg">
<path d="M600 32C582.327 32 568 46.327 568 64C568 81.6731 582.327 96 600 96C617.673 96 632 81.6731 632 64C632 46.327 617.673 32 600 32ZM615.204 74.3768C612.689 77.6246 609.416 79.7753 605.38 80.8288V89.6262H599.283V81.3692C594.525 80.978 590.558 79.0621 587.382 75.6159C584.205 72.1715 582.616 68.0594 582.616 63.2759C582.616 58.1921 584.378 53.8907 587.9 50.3718C591.423 46.8528 595.728 45.0933 600.817 45.0933C605.906 45.0933 610.204 46.8528 613.712 50.3718C617.218 53.8926 618.974 58.1921 618.974 63.2759C618.974 67.4262 617.717 71.1271 615.202 74.375L615.204 74.3768Z" fill="#FF4E00"/>
<path d="M593.321 66.6365H589.21C589.873 68.9564 591.115 70.8906 592.937 72.4408C594.758 73.9929 596.874 74.919 599.283 75.2192V72.5991C599.283 70.9434 598.703 69.535 597.544 68.376C596.385 67.217 594.976 66.6365 593.321 66.6365Z" fill="#FF4E00"/>
<path d="M600.819 51.1905C597.959 51.1905 595.437 52.0603 593.253 53.7979C591.07 55.5355 589.663 57.7845 589.03 60.5411H593.321C596.692 60.5411 599.545 61.7074 601.88 64.04C604.212 66.3745 605.38 69.2275 605.38 72.5991V74.4059C607.638 73.4743 609.452 71.995 610.823 69.9662C612.193 67.9374 612.879 65.7067 612.879 63.2722C612.879 59.906 611.71 57.0512 609.378 54.7077C607.043 52.3623 604.19 51.1905 600.819 51.1905Z" fill="#FF4E00"/>
</svg>
