<svg width="128" height="46" viewBox="0 0 128 46" fill="none" xmlns="http://www.w3.org/2000/svg">
<g clip-path="url(#clip0_804_7927)">
<g clip-path="url(#clip1_804_7927)">
<path d="M75.4245 15.8571C74.7474 16.3126 74.2042 16.9789 73.7948 17.8559V15.6294H70.0181V33.3123H74.3913V26.1613L74.3757 25.3C74.3757 22.83 74.6097 21.1715 75.0775 20.3273C75.5454 19.4817 76.1185 19.0589 76.7956 19.0589C77.1296 19.0589 77.5546 19.1884 78.0706 19.4489L79.4417 15.6294C78.8179 15.3257 78.22 15.1738 77.6508 15.1738C76.8437 15.1738 76.1016 15.4016 75.4232 15.8558" fill="#565656"/>
</g>
<g clip-path="url(#clip2_804_7927)">
<path d="M22.8502 0C10.2304 0 0 10.2975 0 23C0 35.7025 10.2304 46 22.8502 46C35.47 46 45.7005 35.7025 45.7005 23C45.7005 10.2975 35.47 0 22.8502 0ZM33.7069 30.4583C31.9114 32.7927 29.5739 34.3384 26.6921 35.0957V41.4188H22.3384V35.4841C18.9407 35.2029 16.1083 33.8258 13.8398 31.3489C11.5713 28.8732 10.437 25.9177 10.437 22.4795C10.437 18.8255 11.6947 15.734 14.2101 13.2047C16.7255 10.6754 19.7995 9.41081 23.4336 9.41081C27.0677 9.41081 30.1365 10.6754 32.6415 13.2047C35.1452 15.7353 36.3989 18.8255 36.3989 22.4795C36.3989 25.4626 35.5012 28.1225 33.7056 30.457L33.7069 30.4583Z" fill="#565656"/>
<path d="M18.0804 24.894H15.1454C15.6183 26.5615 16.5057 27.9518 17.8064 29.066C19.1069 30.1815 20.618 30.8472 22.3382 31.0629V29.1797C22.3382 27.9897 21.9237 26.9774 21.0961 26.1444C20.2684 25.3114 19.2628 24.894 18.0804 24.894Z" fill="#565656"/>
<path d="M23.4349 13.7935C21.3924 13.7935 19.5917 14.4185 18.0325 15.6676C16.4735 16.9165 15.4691 18.5329 15.017 20.5141H18.0806C20.4881 20.5141 22.5254 21.3525 24.1923 23.029C25.858 24.7069 26.6921 26.7576 26.6921 29.1808V30.4794C28.3046 29.8098 29.5998 28.7467 30.5782 27.2885C31.5565 25.8303 32.0464 24.227 32.0464 22.4771C32.0464 20.0577 31.2123 18.0058 29.5467 16.3213C27.8796 14.6357 25.8424 13.7935 23.4349 13.7935Z" fill="#565656"/>
</g>
<g clip-path="url(#clip3_804_7927)">
<path d="M59.9971 15.1822C58.9419 15.1822 57.9529 15.3824 57.0277 15.7827C56.1024 16.1829 55.2422 16.7847 54.4456 17.5852V8.81445H50.0728V33.3071H54.4456V31.4393C55.3059 32.262 56.1713 32.8545 57.0433 33.2181C57.914 33.5805 58.8561 33.7611 59.8671 33.7611C62.136 33.7611 64.0996 32.8755 65.7565 31.1057C67.4133 29.3345 68.2412 27.1342 68.2412 24.5024C68.2412 21.8705 67.4393 19.5382 65.837 17.7945C64.2334 16.0508 62.2868 15.1796 59.9958 15.1796M62.4726 28.224C61.5539 29.2089 60.4207 29.7021 59.0757 29.7021C57.7307 29.7021 56.5378 29.2181 55.6229 28.2487C54.7094 27.2794 54.252 26.0106 54.252 24.4409C54.252 22.8712 54.7094 21.6586 55.6229 20.705C56.5365 19.7514 57.6878 19.2753 59.0757 19.2753C60.4636 19.2753 61.5928 19.7593 62.496 20.7285C63.4005 21.6978 63.8514 22.9405 63.8514 24.4565C63.8514 25.9727 63.3914 27.2389 62.4713 28.2253" fill="#565656"/>
</g>
<g clip-path="url(#clip4_804_7927)">
<path d="M89.0426 15.1751C86.4406 15.1751 84.2764 16.0662 82.55 17.8485C80.8235 19.6307 79.9609 21.8696 79.9609 24.5664C79.9609 27.2633 80.8261 29.3897 82.5577 31.1379C84.2881 32.8874 86.5302 33.7615 89.2829 33.7615C91.0574 33.7615 92.5903 33.4448 93.8803 32.8115C95.1702 32.1782 96.2783 31.2007 97.2032 29.8791L93.4932 28.1243C92.311 29.2837 90.8964 29.8621 89.2505 29.8621C87.8748 29.8621 86.742 29.4904 85.856 28.7498C84.9688 28.0079 84.4232 27.0082 84.2179 25.752H98.3634L98.3789 24.9067C98.3789 21.9821 97.5137 19.6281 95.7821 17.8472C94.0505 16.0649 91.8031 15.1738 89.04 15.1738M84.4128 22.2582C84.909 21.1643 85.4468 20.4014 86.0288 19.967C86.955 19.2735 88.032 18.9267 89.2596 18.9267C90.391 18.9267 91.3835 19.2355 92.2409 19.8518C93.0969 20.4694 93.6711 21.2716 93.9621 22.2569L84.4128 22.2582Z" fill="#565656"/>
</g>
<g clip-path="url(#clip5_804_7927)">
<path d="M106.038 9.12354H101.635V15.6385H99.3773V19.4547H101.635V33.3115H106.038V19.4547H108.651V15.6385H106.038V9.12354Z" fill="#565656"/>
</g>
<g clip-path="url(#clip6_804_7927)">
<path d="M127.778 24.9119C127.778 21.9887 126.913 19.6357 125.181 17.8557C123.45 16.0743 121.202 15.1836 118.44 15.1836C115.838 15.1836 113.674 16.0743 111.949 17.8557C110.222 19.637 109.36 21.8749 109.36 24.5705C109.36 27.2661 110.225 29.3915 111.956 31.1389C113.687 32.8876 115.929 33.7613 118.681 33.7613C120.456 33.7613 121.987 33.4447 123.278 32.8117C124.568 32.1787 125.675 31.2017 126.601 29.8806L122.891 28.1267C121.708 29.2855 120.295 29.8637 118.649 29.8637C117.273 29.8637 116.14 29.4922 115.255 28.7519C114.367 28.0103 113.822 27.0111 113.617 25.7555H127.761L127.777 24.9106L127.778 24.9119ZM113.811 22.2634C114.308 21.1699 114.845 20.4074 115.427 19.9732C116.353 19.28 117.43 18.9334 118.658 18.9334C119.789 18.9334 120.782 19.2421 121.639 19.8581C122.495 20.4754 123.069 21.2772 123.36 22.262L113.811 22.2634Z" fill="#565656"/>
</g>
</g>
<defs>
<clipPath id="clip0_804_7927">
<rect width="128" height="46" fill="white"/>
</clipPath>
<clipPath id="clip1_804_7927">
<rect width="9.42361" height="18.1385" fill="white" transform="translate(70.0181 15.1738)"/>
</clipPath>
<clipPath id="clip2_804_7927">
<rect width="45.7005" height="46" fill="white"/>
</clipPath>
<clipPath id="clip3_804_7927">
<rect width="18.1684" height="24.9466" fill="white" transform="translate(50.0728 8.81445)"/>
</clipPath>
<clipPath id="clip4_804_7927">
<rect width="18.418" height="18.5777" fill="white" transform="translate(79.9609 15.1738)"/>
</clipPath>
<clipPath id="clip5_804_7927">
<rect width="9.27387" height="24.1879" fill="white" transform="translate(99.3773 9.12354)"/>
</clipPath>
<clipPath id="clip6_804_7927">
<rect width="18.418" height="18.5777" fill="white" transform="translate(109.36 15.1836)"/>
</clipPath>
</defs>
</svg>
